<?xml version="1.0" encoding="UTF-8" standalone="no"?>
<!-- Created with Inkscape (http://www.inkscape.org/) -->

<svg
   xmlns:ns0="http://www.iki.fi/pav/software/textext/"
   xmlns:dc="http://purl.org/dc/elements/1.1/"
   xmlns:cc="http://creativecommons.org/ns#"
   xmlns:rdf="http://www.w3.org/1999/02/22-rdf-syntax-ns#"
   xmlns:svg="http://www.w3.org/2000/svg"
   xmlns="http://www.w3.org/2000/svg"
   xmlns:xlink="http://www.w3.org/1999/xlink"
   xmlns:sodipodi="http://sodipodi.sourceforge.net/DTD/sodipodi-0.dtd"
   xmlns:inkscape="http://www.inkscape.org/namespaces/inkscape"
   id="svg4303"
   version="1.1"
   inkscape:version="0.91 r13725"
   width="1185"
   height="728.75"
   viewBox="0 0 1185 728.75"
   sodipodi:docname="Torpedo_Image01_annot.svg">
  <sodipodi:namedview
     pagecolor="#ffffff"
     bordercolor="#666666"
     borderopacity="1"
     objecttolerance="10"
     gridtolerance="10"
     guidetolerance="10"
     inkscape:pageopacity="0"
     inkscape:pageshadow="2"
     inkscape:window-width="1594"
     inkscape:window-height="1059"
     id="namedview4305"
     showgrid="false"
     inkscape:zoom="0.70173635"
     inkscape:cx="629.44082"
     inkscape:cy="465.94286"
     inkscape:window-x="0"
     inkscape:window-y="0"
     inkscape:window-maximized="0"
     inkscape:current-layer="g6941" />
  <metadata
     id="metadata4309">
    <rdf:RDF>
      <cc:Work
         rdf:about="">
        <dc:format>image/svg+xml</dc:format>
        <dc:type
           rdf:resource="http://purl.org/dc/dcmitype/StillImage" />
        <dc:title></dc:title>
      </cc:Work>
    </rdf:RDF>
  </metadata>
  <defs
     id="defs4307">
    <marker
       inkscape:stockid="Arrow1Mend"
       orient="auto"
       refY="0.0"
       refX="0.0"
       id="Arrow1Mend"
       style="overflow:visible;"
       inkscape:isstock="true">
      <path
         id="path4868"
         d="M 0.0,0.0 L 5.0,-5.0 L -12.5,0.0 L 5.0,5.0 L 0.0,0.0 z "
         style="fill-rule:evenodd;stroke:#000000;stroke-width:1.0pt;"
         transform="scale(0.4) rotate(180) translate(10,0)" />
    </marker>
    <marker
       inkscape:isstock="true"
       style="overflow:visible;"
       id="marker5665"
       refX="0.0"
       refY="0.0"
       orient="auto"
       inkscape:stockid="Arrow1Mend">
      <path
         transform="scale(0.4) rotate(180) translate(10,0)"
         style="fill-rule:evenodd;stroke:#00c400;stroke-width:1pt;stroke-opacity:1;fill:#00c500;fill-opacity:1"
         d="M 0.0,0.0 L 5.0,-5.0 L -12.5,0.0 L 5.0,5.0 L 0.0,0.0 z "
         id="path5667" />
    </marker>
    <marker
       inkscape:stockid="Arrow2Lend"
       orient="auto"
       refY="0.0"
       refX="0.0"
       id="marker5135"
       style="overflow:visible;"
       inkscape:isstock="true">
      <path
         id="path5137"
         style="fill-rule:evenodd;stroke-width:0.625;stroke-linejoin:round;stroke:#000000;stroke-opacity:1;fill:#000000;fill-opacity:1"
         d="M 8.7185878,4.0337352 L -2.2072895,0.016013256 L 8.7185884,-4.0017078 C 6.9730900,-1.6296469 6.9831476,1.6157441 8.7185878,4.0337352 z "
         transform="scale(1.1) rotate(180) translate(1,0)" />
    </marker>
    <marker
       inkscape:stockid="Arrow2Lend"
       orient="auto"
       refY="0.0"
       refX="0.0"
       id="Arrow2Lend"
       style="overflow:visible;"
       inkscape:isstock="true">
      <path
         id="path4880"
         style="fill-rule:evenodd;stroke-width:0.625;stroke-linejoin:round;stroke:#000000;stroke-opacity:1;fill:#000000;fill-opacity:1"
         d="M 8.7185878,4.0337352 L -2.2072895,0.016013256 L 8.7185884,-4.0017078 C 6.9730900,-1.6296469 6.9831476,1.6157441 8.7185878,4.0337352 z "
         transform="scale(1.1) rotate(180) translate(1,0)" />
    </marker>
  </defs>
  <g
     inkscape:groupmode="layer"
     id="layer1"
     inkscape:label="Layer 1">
    <image
       sodipodi:absref="/Users/lkilcher/doc/publish/imuadv/fig/Torpedo_Image01.jpg"
       xlink:href="Torpedo_Image01.jpg"
       y="0"
       x="0"
       id="image4311"
       preserveAspectRatio="none"
       height="728.75"
       width="1185"
       style="" />
  </g>
  <g
     inkscape:groupmode="layer"
     id="layer2"
     inkscape:label="Layer 2">
    <path
       inkscape:connector-curvature="0"
       id="path5663"
       d="M 882.09767,529.24488 249.38141,325.46464"
       style="fill:#00c500;fill-opacity:1;fill-rule:evenodd;stroke:#00c400;stroke-width:12.5;stroke-linecap:butt;stroke-linejoin:miter;stroke-miterlimit:4;stroke-dasharray:none;stroke-opacity:1;marker-end:url(#marker5665)" />
    <g
       transform="translate(18.525476,17.10044)"
       id="g6941">
      <rect
         style="opacity:1;fill:#00c500;fill-opacity:1;stroke:#00c400;stroke-width:12.5;stroke-miterlimit:4;stroke-dasharray:none;stroke-dashoffset:0;stroke-opacity:1"
         id="rect6939"
         width="44.176136"
         height="60.564056"
         x="296.40762"
         y="227.84962" />
      <g
         style="font-style:normal;font-variant:normal;font-weight:normal;font-stretch:normal;letter-spacing:normal;word-spacing:normal;text-anchor:start;fill:none;fill-opacity:1;fill-rule:evenodd;stroke:#000000;stroke-width:0.16039427;stroke-linecap:butt;stroke-linejoin:miter;stroke-miterlimit:10.43299961;stroke-dasharray:none;stroke-dashoffset:0;stroke-opacity:1"
         ns0:preamble=""
         ns0:text="$\\vec{\\ell}^*$"
         text-anchor="start"
         word-spacing="normal"
         letter-spacing="normal"
         font-size-adjust="none"
         font-stretch="normal"
         font-weight="normal"
         font-variant="normal"
         font-style="normal"
         fill-opacity="1"
         fill-rule="evenodd"
         fill="none"
         stroke-opacity="1"
         stroke-dashoffset="0"
         stroke-dasharray="none"
         stroke-miterlimit="10.433"
         stroke-linejoin="miter"
         stroke-linecap="butt"
         stroke="black"
         xml:space="preserve"
         transform="matrix(6.2346362,0,0,-6.2346365,-1098.681,4384.0821)"
         id="content"><path
           id="path6869"
           fill="black"
           stroke-width="0"
           d="M228.7,665.78 L228.69,665.76 L228.67,665.75 L228.66,665.73 L228.64,665.72 L228.62,665.7 L228.61,665.69 L228.59,665.67 L228.57,665.65 L228.55,665.64 L228.53,665.62 L228.49,665.58 L228.45,665.54 L228.41,665.5 L228.4,665.48 L228.38,665.46 L228.36,665.44 L228.34,665.42 L228.33,665.4 L228.31,665.38 L228.3,665.36 L228.29,665.34 L228.27,665.32 L228.26,665.3 L228.26,665.28 L228.25,665.26 L228.24,665.24 L228.24,665.22 L228.23,665.21 L228.23,665.19 C228.23,665.09,228.33,664.99,228.43,664.99 C228.52,664.99,228.57,665.06,228.62,665.12 C228.74,665.27,228.97,665.55,229.41,665.77 C229.48,665.8,229.58,665.85,229.58,665.97 C229.58,666.07,229.51,666.12,229.44,666.17 C229.22,666.32,229.11,666.5,229.03,666.74 C229.01,666.83,228.97,666.96,228.83,666.96 C228.69,666.96,228.63,666.83,228.63,666.75 C228.63,666.7,228.71,666.38,228.87,666.17 H225.52 C225.35,666.17,225.17,666.17,225.17,665.97 C225.17,665.78,225.35,665.78,225.52,665.78 Z " /><path
           id="path6871"
           fill="black"
           stroke-width="0"
           d="M223.59,658.22 L223.59,658.21 L223.58,658.21 L223.58,658.2 L223.57,658.2 L223.57,658.19 L223.57,658.18 L223.56,658.18 L223.56,658.17 L223.55,658.17 L223.55,658.16 L223.55,658.16 L223.55,658.16 L223.55,658.15 L223.55,658.15 L223.55,658.15 L223.54,658.14 L223.54,658.14 L223.54,658.14 L223.54,658.13 L223.54,658.13 L223.54,658.13 L223.54,658.12 L223.54,658.12 C223.54,658.07,223.6,657.99,223.66,657.99 C223.71,657.99,223.74,658.02,224.02,658.3 C224.1,658.37,224.3,658.56,224.38,658.64 C224.48,657.85,224.76,657.12,225.49,657.12 C225.89,657.12,226.24,657.34,226.45,657.49 C226.59,657.59,227.05,657.98,227.05,658.08 C227.05,658.11,227.02,658.2,226.93,658.2 C226.9,658.2,226.89,658.19,226.8,658.11 C226.17,657.48,225.8,657.33,225.51,657.33 C225.06,657.33,224.9,657.85,224.9,658.63 C224.9,658.68,224.92,659.14,224.95,659.19 C224.97,659.22,224.97,659.24,225.17,659.44 C225.98,660.24,227.39,661.92,227.39,663.46 C227.39,663.63,227.39,664.24,226.8,664.24 L226.82,664.02 C227.15,664.02,227.15,663.66,227.15,663.5 C227.15,661.84,225.48,660.11,225,659.61 H225 C225.02,659.72,225.45,661.92,226.02,663.09 C226.29,663.62,226.5,664.02,226.82,664.02 L226.8,664.24 C225.98,664.24,225.24,662.6,225.14,662.37 C224.67,661.29,224.36,660.13,224.36,658.94 Z " /><path
           id="path6873"
           fill="black"
           stroke-width="0"
           d="M229.83,662.58 L229.89,662.61 L229.94,662.63 L229.99,662.65 L230.03,662.67 L230.08,662.69 L230.12,662.71 L230.17,662.73 L230.21,662.74 L230.25,662.76 L230.28,662.78 L230.32,662.79 L230.36,662.81 L230.39,662.82 L230.42,662.83 L230.45,662.85 L230.48,662.86 L230.51,662.87 L230.54,662.88 L230.57,662.9 L230.59,662.91 L230.62,662.92 L230.64,662.93 L230.66,662.94 L230.69,662.95 L230.71,662.96 L230.73,662.96 L230.77,662.98 L230.8,663 L230.84,663.01 C230.97,663.07,231.03,663.1,231.03,663.23 C231.03,663.35,230.94,663.45,230.81,663.45 C230.77,663.45,230.75,663.45,230.67,663.39 L229.72,662.76 L229.83,663.79 C229.84,663.91,229.83,664.08,229.62,664.08 C229.53,664.08,229.4,664.03,229.4,663.88 C229.4,663.81,229.43,663.6,229.44,663.53 C229.45,663.42,229.5,662.92,229.51,662.76 L228.57,663.39 C228.5,663.43,228.48,663.45,228.42,663.45 C228.29,663.45,228.2,663.35,228.2,663.23 C228.2,663.09,228.29,663.05,228.35,663.03 L229.4,662.59 C228.83,662.34,228.57,662.24,228.4,662.16 C228.27,662.1,228.2,662.08,228.2,661.94 C228.2,661.82,228.29,661.72,228.42,661.72 C228.47,661.72,228.48,661.72,228.57,661.78 L229.51,662.42 L229.4,661.3 C229.4,661.14,229.53,661.09,229.62,661.09 C229.7,661.09,229.83,661.14,229.83,661.3 C229.83,661.36,229.8,661.57,229.8,661.64 C229.78,661.76,229.74,662.26,229.72,662.42 L230.56,661.86 C230.74,661.72,230.75,661.72,230.81,661.72 C230.94,661.72,231.03,661.82,231.03,661.94 C231.03,662.08,230.95,662.12,230.88,662.14 Z " /></g>    </g>
  </g>
</svg>
